Coordinates
version=1
nRows=49
nColumns=12
inDegrees=yes

Units are S.I. units (second, meters, Newtons, ...)
Angles are in degrees

endheader
time	SC_y	SC_z	SC_x	AC_y	AC_z	AC_x	GH_y	GH_z	GH_yy	EL_x	PS_y
       0.0              -41.75          21.77          23.46          69.46         -9.288         -1.549         -124.1          63.53          94.03          71.71          11.91
  0.007204              -41.75          21.78          23.46          69.45         -9.288          -1.55         -124.1          63.53          94.04          71.72          11.93
   0.01441              -41.75          21.78          23.46          69.45         -9.289         -1.551         -124.1          63.53          94.05          71.72          11.95
   0.02161              -41.75          21.78          23.46          69.45          -9.29         -1.552         -124.1          63.53          94.06          71.73          11.97
   0.02881              -41.75          21.78          23.47          69.44         -9.291         -1.553         -124.0          63.52          94.07          71.73           12.0
   0.03602              -41.75          21.79          23.47          69.44         -9.292         -1.554         -124.0          63.52          94.08          71.74          12.02
   0.04322              -41.75          21.79          23.47          69.43         -9.293         -1.555         -124.0          63.52          94.09          71.75          12.05
   0.05043              -41.76          21.79          23.48          69.43         -9.294         -1.556         -123.9          63.52           94.1          71.76          12.08
   0.05763              -41.76           21.8          23.48          69.42         -9.295         -1.558         -123.9          63.52          94.11          71.76          12.12
   0.06483              -41.76           21.8          23.48          69.41         -9.297         -1.559         -123.9          63.52          94.12          71.77          12.15
   0.07204              -41.76          21.81          23.49          69.41         -9.298         -1.561         -123.8          63.52          94.14          71.78          12.19
   0.07924              -41.76          21.81          23.49           69.4           -9.3         -1.563         -123.8          63.51          94.15          71.79          12.23
   0.08644              -41.77          21.82          23.49          69.39         -9.301         -1.564         -123.7          63.51          94.17           71.8          12.27
   0.09365              -41.77          21.82           23.5          69.38         -9.303         -1.566         -123.7          63.51          94.19          71.81          12.32
    0.1009              -41.77          21.83           23.5          69.37         -9.305         -1.569         -123.6          63.51          94.21          71.82          12.37
    0.1081              -41.77          21.83          23.51          69.36         -9.307         -1.571         -123.6          63.51          94.23          71.84          12.43
    0.1153              -41.78          21.84          23.51          69.35         -9.309         -1.573         -123.5           63.5          94.25          71.85          12.49
    0.1225              -41.78          21.85          23.52          69.34         -9.311         -1.576         -123.5           63.5          94.27          71.87          12.55
    0.1297              -41.78          21.86          23.53          69.33         -9.314         -1.579         -123.4           63.5           94.3          71.88          12.63
    0.1369              -41.79          21.86          23.53          69.32         -9.317         -1.583         -123.3           63.5          94.33           71.9           12.7
    0.1441              -41.79          21.87          23.54           69.3          -9.32         -1.586         -123.2          63.49          94.36          71.92          12.79
    0.1513               -41.8          21.88          23.55          69.28         -9.323          -1.59         -123.1          63.49           94.4          71.94          12.89
    0.1585               -41.8           21.9          23.56          69.27         -9.327         -1.595         -123.0          63.48          94.44          71.97          12.99
    0.1657              -41.81          21.91          23.57          69.24         -9.332         -1.599         -122.9          63.48          94.48           72.0          13.11
    0.1729              -41.82          21.92          23.59          69.22         -9.336         -1.605         -122.7          63.47          94.53          72.03          13.24
    0.1801              -41.82          21.94           23.6           69.2         -9.342         -1.611         -122.6          63.47          94.58          72.06          13.38
    0.1873              -41.83          21.96          23.61          69.17         -9.347         -1.618         -122.4          63.46          94.64           72.1          13.54
    0.1945              -41.84          21.98          23.63          69.14         -9.354         -1.625         -122.2          63.45          94.71          72.14          13.72
    0.2017              -41.85           22.0          23.65           69.1         -9.362         -1.634         -122.0          63.44          94.78          72.19          13.93
    0.2089              -41.87          22.03          23.67          69.06          -9.37         -1.644         -121.8          63.43          94.87          72.24          14.16
    0.2161              -41.88          22.06           23.7          69.01          -9.38         -1.655         -121.5          63.42          94.97           72.3          14.43
    0.2233               -41.9          22.09          23.73          68.96         -9.391         -1.668         -121.2          63.41          95.08          72.38          14.73
    0.2305              -41.92          22.13          23.76          68.89         -9.404         -1.682         -120.8           63.4          95.21          72.46          15.09
    0.2377              -41.94          22.17           23.8          68.82         -9.419         -1.699         -120.4          63.38          95.36          72.56           15.5
    0.2449              -41.96          22.23          23.85          68.74         -9.436          -1.72         -119.9          63.36          95.54          72.67          15.98
    0.2521              -41.99          22.29           23.9          68.64         -9.457         -1.743         -119.3          63.34          95.75           72.8          16.54
    0.2593              -42.03          22.37          23.97          68.52         -9.481         -1.771         -118.5          63.31           96.0          72.96          17.21
    0.2665              -42.07          22.46          24.04          68.38         -9.511         -1.805         -117.7          63.27           96.3          73.15          18.02
    0.2737              -42.12          22.56          24.14           68.2         -9.546         -1.846         -116.7          63.23          96.66          73.38          18.99
    0.2809              -42.19           22.7          24.25          67.99          -9.59         -1.896         -115.4          63.18           97.1          73.65          20.18
    0.2881              -42.26          22.86          24.39          67.73         -9.643         -1.957         -113.9          63.12          97.65           74.0          21.65
    0.2953              -42.36          23.06          24.57          67.41          -9.71         -2.034         -112.0          63.05          98.32          74.43          23.48
    0.3026              -42.48          23.32          24.79           67.0         -9.794         -2.131         -109.5          62.95          99.18          74.97          25.79
    0.3098              -42.64          23.65          25.07          66.48         -9.901         -2.254         -106.4          62.83          100.3          75.66          28.72
     0.317              -42.84          24.07          25.43          65.82         -10.04         -2.411         -102.5          62.67          101.7          76.54          32.47
    0.3242               -43.1           24.6          25.89          64.96         -10.21         -2.613         -97.42          62.47          103.4          77.67          37.29
    0.3314              -43.42          25.29          26.48          63.88         -10.44         -2.871         -90.94          62.22          105.7          79.11          43.44
    0.3386              -43.83          26.15          27.22          62.51         -10.72         -3.195          -82.8           61.9          108.6          80.92          51.18
    0.3458              -44.33           27.2          28.13          60.84         -11.07          -3.59         -72.88          61.51          112.1          83.13          60.61
